{"title":"Star-Crossed S01E04 HDTV x264 AAC [GWC].mp4","uid":9744428,"size":144519747,"categoryP":"video","categoryS":"tv_shows","magnet":"?xt=urn:btih:b3b0e94b7344299cf989d81ba331fd538446eeb8&amp;dn=Star-Crossed+S01E04+HDTV+x264+AAC+%5BGWC%5D.mp4&amp;tr=udp%3A%2F%2Ftracker.openbittorrent.com%3A80&amp;tr=udp%3A%2F%2Fopen.demonii.com%3A1337&amp;tr=udp%3A%2F%2Ftracker.coppersurfer.tk%3A6969&amp;tr=udp%3A%2F%2Fexodus.desync.com%3A6969","seeders":1,"leechers":0,"uploader":"canc232","files":1,"time":1394561638,"description":"Star Crossed S01E04 HDTV x26A4 AAC [GWC] \n\n\nSTORYLINE :\nAbout an epic romance between a human girl and an alien boy when he and eight others of his kind are integrated into a suburban high school 10 years after they landed on Earth and were consigned to an internment camp.\n\n\nSCREENS : &lt;a href=&quot;\nhttp://i.imgur.com/XKOEwOf.jpg&quot; rel=&quot;nofollow&quot; target=&quot;_NEW&quot;&gt;\nhttp://i.imgur.com/XKOEwOf.jpg&lt;/a&gt; &lt;a href=&quot;\nhttp://i.imgur.com/WRsUFq3.jpg&quot; rel=&quot;nofollow&quot; target=&quot;_NEW&quot;&gt;\nhttp://i.imgur.com/WRsUFq3.jpg&lt;/a&gt; &lt;a href=&quot;\nhttp://i.imgur.com/0w0aaoB.jpg&quot; rel=&quot;nofollow&quot; target=&quot;_NEW&quot;&gt;\nhttp://i.imgur.com/0w0aaoB.jpg&lt;/a&gt;\n\n\nMEDIA INFO :\nGeneral \nFormat : MPEG-4 \nFormat profile : Base Media \nFile size : 138 MiB \nDuration : 38mn 25s \nOverall bit rate mode : Variable \nOverall bit rate : 501 Kbps  \n\nVideo \nFormat : AVC \nFormat profile : &lt;a class=&quot;__cf_email__&quot; href=&quot;/cdn-cgi/l/email-protection&quot; data-cfemail=&quot;125a7b757a525e213c22&quot;&gt;[email&amp;#160;protected]&lt;/a&gt;&lt;script cf-hash='f9e31' type=&quot;text/javascript&quot;&gt;\n/* &lt;![CDATA[ */!function(){try{var t=&quot;currentScript&quot;in document?document.currentScript:function(){for(var t=document.getElementsByTagName(&quot;script&quot;),e=t.length;e--;)if(t[e].getAttribute(&quot;cf-hash&quot;))return t[e]}();if(t&amp;&amp;t.previousSibling){var e,r,n,i,c=t.previousSibling,a=c.getAttribute(&quot;data-cfemail&quot;);if(a){for(e=&quot;&quot;,r=parseInt(a.substr(0,2),16),n=2;a.length-n;n+=2)i=parseInt(a.substr(n,2),16)^r,e+=String.fromCharCode(i);e=document.createTextNode(e),c.parentNode.replaceChild(e,c)}}}catch(u){}}();/* ]]&gt; */&lt;/script&gt; \nFormat settings, CABAC : Yes \nFormat settings, ReFrames : 4 frames \nDuration : 38mn 25s \nBit rate : 438 Kbps \nMaximum bit rate : 3 823 Kbps \nWidth : 720 pixels \nHeight : 404 pixels \nDisplay aspect ratio : 16:9 \nFrame rate : 23.976 fps \nStream size : 120 MiB (87%) \nTitle : Star Crossed S01E04 HDTV x264 AAC [GWC] \nWriting library : x264 core \n\nAudio \nFormat : AAC \nFormat profile : HE-AAC / LC \nChannel(s) : 2 channels \nSampling rate : 48.0 KHz / 24.0 KHz \nStream size : 16.5 MiB (12%) \nLanguage : English ","torrent":{"xt":"urn:btih:b3b0e94b7344299cf989d81ba331fd538446eeb8","amp;dn":"Star-Crossed+S01E04+HDTV+x264+AAC+%5BGWC%5D.mp4","amp;tr":["udp%3A%2F%2Ftracker.openbittorrent.com%3A80","udp%3A%2F%2Fopen.demonii.com%3A1337","udp%3A%2F%2Ftracker.coppersurfer.tk%3A6969","udp%3A%2F%2Fexodus.desync.com%3A6969"],"infoHash":"b3b0e94b7344299cf989d81ba331fd538446eeb8","infoHashBuffer":{"type":"Buffer","data":[179,176,233,75,115,68,41,156,249,137,216,27,163,49,253,83,132,70,238,184]},"announce":[],"urlList":[]}}